<svg xmlns="http://www.w3.org/2000/svg" width="20.876" height="14" viewBox="0 0 20.876 14">
  <path id="Mail" d="M3.152,14A3.361,3.361,0,0,1,1.3,13.443l.644-.682,6-6.346,2.262,1.5.107.037h.036a.459.459,0,0,0,.056,0,.443.443,0,0,0,.056,0,.39.39,0,0,0,.112,0h.036l.076-.037,2.281-1.511,5.968,6.337.63.668A3.532,3.532,0,0,1,17.615,14H3.286ZM.662,12.8h0A3.706,3.706,0,0,1,0,10.631L0,3.356a3.821,3.821,0,0,1,.483-1.9l.755.5L7.149,5.9,1.3,12.124.663,12.8Zm19.568,0h0l-.639-.682L13.743,5.879l5.9-3.915.76-.5a3.647,3.647,0,0,1,.469,1.9v7.261a3.5,3.5,0,0,1-.643,2.161ZM10.4,6.955h0L8.164,5.467A.454.454,0,0,0,8,5.366L1.86,1.291,1.051.755A3.24,3.24,0,0,1,3.123,0c.063,0,.116,0,.163,0H17.653A3.473,3.473,0,0,1,19.8.755l-.814.541L10.4,6.955Z" fill="#fff"/>
</svg>
