<svg xmlns="http://www.w3.org/2000/svg" width="23.004" height="23.001" viewBox="0 0 23.004 23.001">
  <g id="Globe" transform="translate(-130.383 -161.779)">
    <path id="Path_12167" data-name="Path 12167" d="M141.872,162.279a11,11,0,1,0,10.987,10.254A11.088,11.088,0,0,0,141.872,162.279Z" transform="translate(0)" fill="none" stroke="#fff" stroke-miterlimit="10" stroke-width="1"/>
    <path id="Path_12168" data-name="Path 12168" d="M272.738,217.23c-.09-.109.131-.339,0-.544-.117-.184-.361-.1-.453-.272-.112-.206.191-.431.091-.68-.089-.219-.374-.166-.453-.363-.1-.247.317-.416.362-.816.063-.566-.7-.851-.589-1.405.046-.228.21-.354.136-.5-.066-.13-.262-.156-.453-.181-.379-.051-.443.074-.725,0-.229-.06-.292-.17-.453-.136s-.174.157-.294.194c-.354.108-1.115-.7-.961-1.208.052-.173.187-.233.19-.436,0-.246-.19-.286-.19-.481,0-.342.6-.39.749-.906.067-.23.021-.272.1-.425.122-.234.747-.276,1.381-.464.344-.1.55-.207.658-.1s.014.269.141.386c.1.09.209.041.386.085a.86.86,0,0,1,.47.339c.083-.174.191-.349.3-.339.092.009.093.14.226.207.174.088.287-.082.574-.047.216.027.3.142.395.085.067-.038.084-.121.113-.273.045-.232.068-.354.009-.433-.164-.22-.792.139-.94-.066a.322.322,0,0,1,.1-.382c.1-.074.168.005.377-.051s.274-.163.377-.12c.066.027.055.081.12.12.118.072.26-.043.48-.1.087-.024.451-.124.634.034.151.131.039.316.206.514.133.158.381.248.48.171.131-.1.071-.546-.171-.772-.107-.1-.218-.127-.24-.24-.029-.151.143-.252.1-.326-.051-.093-.4-.073-.48.086-.066.13.1.253.034.377-.077.149-.4.142-.6.086a.605.605,0,0,1-.325-.189c-.132-.162-.1-.35-.171-.36-.086-.013-.162.269-.257.257s-.068-.217-.154-.24c-.113-.03-.189.309-.531.566-.194.146-.293.13-.354.26-.1.223.082.5.038.518s-.153-.131-.245-.282c-.156-.259-.127-.358-.275-.531-.01-.011-.084-.075-.232-.2-.231-.2-.293-.246-.329-.226s-.038.11-.019.179c.068.238.377.222.461.461.033.095.03.226-.038.273s-.174.016-.188-.028.031-.05.038-.094-.023-.115-.179-.216a.7.7,0,0,0-.433-.4c-.188-.038-.347.065-.6.235-.495.331-.576.59-.942.662-.145.029-.326.021-.38-.056s.1-.173.123-.4c.014-.182-.071-.254-.022-.313.09-.109.382.129.626,0,.144-.076.234-.26.19-.347s-.158-.041-.212-.134a.2.2,0,0,1,.034-.235c.074-.063.156.022.291,0,.259-.043.277-.409.559-.47.13-.028.2.034.257-.022.112-.108-.056-.414,0-.444s.141.18.36.305.537.165.666.028c.108-.116.012-.286.139-.389.108-.088.261-.031.277-.083.022-.07-.263-.147-.277-.305s.277-.251.25-.389a.261.261,0,0,0-.305-.139c-.062.019-.063.056-.185.185-.148.156-.2.163-.209.234a.274.274,0,0,0,.129.228c.036.021.067.025.08.055.021.049-.027.113-.043.136-.088.119-.293.231-.419.16-.105-.059-.061-.193-.185-.259a.211.211,0,0,0-.234.012c-.039.044-.008.1-.043.123-.052.042-.2-.008-.265-.117a.276.276,0,0,1,.043-.3.812.812,0,0,0,.512-.224c.156-.164.117-.3.243-.457.191-.231.543-.227.895-.224a1.991,1.991,0,0,1,1.147.272c-.01.059-.5-.039-.564.127-.032.079.047.184.107.234a.456.456,0,0,0,.574-.049c.13-.137.067-.312.185-.37.089-.044.163.038.321.08.3.08.389-.111.835-.145.345-.026.524.071.594-.032.081-.12-.1-.335-.032-.4s.215.078.417.112c.324.055.552-.187.722-.257.713-.295,2.357,1.61,3.408,3.5a12.329,12.329,0,0,1,.749,1.615,4.788,4.788,0,0,1,.566,2.333c-.08.034-.214-.235-.385-.193a.4.4,0,0,0-.208.433c.036.215.245.272.417.449.407.418.378,1.262.176,1.348-.27.115-1.058-1.039-.946-1.156.064-.066.409.208.481.128.052-.058-.121-.216-.225-.5-.2-.533.06-.959-.144-1.091-.112-.072-.2.047-.353-.016-.3-.124-.172-.666-.417-.787-.263-.129-.806.3-1.026.787-.014.031-.247.556-.048.754.077.077.187.074.208.161.027.109-.109.259-.176.241s-.023-.157-.112-.225-.224.05-.337.016c-.3-.089-.02-1.163-.5-1.493-.132-.091-.2-.04-.385-.177-.268-.2-.249-.383-.449-.449s-.271.106-.529.048c-.213-.047-.209-.175-.465-.241-.212-.055-.278.016-.385-.064-.141-.107-.084-.276-.225-.353a.244.244,0,0,0-.289.032c-.059.077-.007.2.032.289.07.163.252.44.481.433.125,0,.143-.088.257-.1.226-.017.513.287.529.546.032.49-.887,1.139-1.379.931s-.392-1.208-1.139-1.8c-.052-.041-.216-.171-.273-.128s.08.282.289.8c.246.612.3.929.545,1,.09.024.179.007.241.08.1.115-.02.281.048.369.125.162.676-.24.834-.1s-.072.794-.516,1.261c-.379.4-.611.342-.719.633-.174.47.392.839.16,1.252-.165.293-.476.272-.617.617-.114.28.035.43,0,.706C274.462,216.915,272.935,217.468,272.738,217.23Z" transform="translate(-130.278 -39.536)" fill="#fff"/>
    <path id="Path_12169" data-name="Path 12169" d="M149.838,333.183c.193.061.205.2.386.225s.244-.125.386-.1c.228.045.168.444.451.612.257.153.494-.067.708.1.174.133.081.324.193.548.28.556,1.317.286,1.577.741.131.228-.213.356-.257,1.031-.013.2,0,.322-.032.644-.056.492-.14.576-.193.612-.184.126-.386-.056-.515.064-.152.142.084.435-.1.709-.088.133-.183.123-.257.29s-.023.274-.1.322c-.121.079-.366-.15-.418-.1s.248.374.161.515c-.061.1-.243,0-.451.129a.441.441,0,0,0-.225.354c.011.139.146.188.122.29s-.2.137-.194.194.165.03.219.116a.255.255,0,0,1-.09.31c-.211.077-.885-.665-1.084-1.538-.225-.985.311-1.448-.09-2.042-.231-.342-.478-.292-.735-.75a6.357,6.357,0,0,1-.27-.99c-.159-.668-.18-.852-.075-1.02.07-.113.173-.183.165-.315-.01-.154-.145-.19-.165-.345-.027-.207.185-.389.24-.436A.713.713,0,0,1,149.838,333.183Z" transform="translate(-16.999 -161.259)" fill="#fff"/>
    <path id="Path_12170" data-name="Path 12170" d="M161.227,315.465a.235.235,0,0,1,.024.276.393.393,0,0,1-.545-.049c-.024-.079.083-.182.159-.227C160.957,315.41,161.132,315.363,161.227,315.465Z" transform="translate(-28.142 -144.504)" fill="#fff"/>
    <path id="Path_12171" data-name="Path 12171" d="M176.083,322.92" transform="translate(-42.657 -151.596)" fill="#fff"/>
    <path id="Path_12172" data-name="Path 12172" d="M152.76,312.891a.22.22,0,0,0,.026.318.2.2,0,0,0,.247,0c.068-.075.02-.224-.07-.291A.189.189,0,0,0,152.76,312.891Z" transform="translate(-20.594 -142.113)" fill="#fff"/>
    <path id="Path_12173" data-name="Path 12173" d="M157.329,304.762c-.036.009-.04.171.018.3s.181.232.212.212C157.615,305.236,157.395,304.745,157.329,304.762Z" transform="translate(-24.933 -134.459)" fill="#fff"/>
    <path id="Path_12174" data-name="Path 12174" d="M173.572,318.764a.157.157,0,0,0,.229.035.151.151,0,0,0,.018-.212C173.751,318.546,173.553,318.691,173.572,318.764Z" transform="translate(-40.286 -147.5)" fill="#fff"/>
    <path id="Path_12175" data-name="Path 12175" d="M181.02,322.715c0,.048-.011.1.009.106s.109-.062.141-.15a.315.315,0,0,0-.071-.318c-.078-.08-.208-.123-.238-.088S181.028,322.469,181.02,322.715Z" transform="translate(-47.161 -150.966)" fill="#fff"/>
    <path id="Path_12176" data-name="Path 12176" d="M382.169,388.6c-.069.14.04.221-.018.385-.049.138-.142.123-.2.257-.074.167-.034.429.11.495.171.078.4-.164.421-.183a.837.837,0,0,0,.2-.476c.031-.268-.068-.407.037-.531.063-.075.132-.064.165-.147a.2.2,0,0,0-.293-.257c-.1.053-.092.127-.2.257S382.216,388.506,382.169,388.6Z" transform="translate(-236.908 -213.113)" fill="#fff"/>
    <path id="Path_12177" data-name="Path 12177" d="M406.442,405.565c-.064.014-.151,0-.165-.037s.081-.128.165-.165c.065-.029.178-.056.2-.018S406.573,405.537,406.442,405.565Z" transform="translate(-259.899 -229.362)" fill="#fff"/>
    <path id="Path_12178" data-name="Path 12178" d="M441.093,345.126c-.068.01-.083.263-.092.4-.005.084-.03.5.055.513s.224-.236.22-.495C441.272,345.332,441.158,345.117,441.093,345.126Z" transform="translate(-292.665 -172.551)" fill="#fff"/>
    <path id="Path_12179" data-name="Path 12179" d="M286.57,229.773c-.024.062-.119.033-.223.107a.374.374,0,0,0-.143.241c-.016.136.058.3.146.311.111.013.234-.218.275-.293.071-.134.076-.212.128-.22.068-.01.166.106.146.183-.015.061-.094.053-.147.141a.185.185,0,0,0-.021.177c.062.091.3.013.333,0a.344.344,0,0,0,.229-.156.276.276,0,0,0,.01-.2c-.023-.067-.057-.068-.125-.167a.658.658,0,0,1-.094-.188c-.02-.066-.057-.192,0-.25s.157,0,.2-.052.006-.138-.052-.187a.172.172,0,0,0-.2-.021c-.057.038-.028.1-.073.146-.1.113-.373-.046-.447.052-.028.037-.016.1,0,.177C286.538,229.7,286.588,229.726,286.57,229.773Z" transform="translate(-146.581 -63.134)" fill="#fff"/>
    <path id="Path_12180" data-name="Path 12180" d="M292.262,225.928a.114.114,0,0,0,.052-.125.129.129,0,0,0-.187-.062.107.107,0,0,0-.042.1A.128.128,0,0,0,292.262,225.928Z" transform="translate(-152.131 -59.87)" fill="#fff"/>
    <path id="Path_12181" data-name="Path 12181" d="M270.692,217.454c-.069.056-.127.025-.406.01-.225-.012-.282,0-.333-.052a.193.193,0,0,1-.031-.219.158.158,0,0,1,.125-.073c.079,0,.093.069.187.083a.279.279,0,0,0,.177-.042c.082-.047.074-.094.146-.125a.189.189,0,0,1,.187.01c.059.05.048.143.042.2A.31.31,0,0,1,270.692,217.454Z" transform="translate(-131.196 -51.656)" fill="#fff"/>
    <path id="Path_12182" data-name="Path 12182" d="M376.976,198.261c.08-.09,0-.2.09-.271a.3.3,0,0,1,.349.019.025.025,0,0,0,.012.011c.049.018.21-.15.18-.271s-.247-.154-.36-.15a.624.624,0,0,0-.33.12.837.837,0,0,0-.24.241c-.083.12-.158.228-.12.3C376.608,198.363,376.874,198.375,376.976,198.261Z" transform="translate(-231.842 -33.331)" fill="#fff"/>
    <path id="Path_12183" data-name="Path 12183" d="M372.178,190.616a.2.2,0,0,0-.1.334c.036.032.083.037.176.044a1.217,1.217,0,0,0,.167,0,1.115,1.115,0,0,0,.272-.026c.023-.01.156-.069.158-.176a.2.2,0,0,0-.2-.185c-.079.017-.07.139-.185.185-.049.019-.12.025-.149-.009s.008-.088-.026-.132A.136.136,0,0,0,372.178,190.616Z" transform="translate(-227.576 -26.732)" fill="#fff"/>
    <path id="Path_12184" data-name="Path 12184" d="M360.585,193.207c.083.019.092.043.132.035a.167.167,0,0,0,.114-.2.136.136,0,0,0-.105-.07c-.045-.006-.057.017-.114.026-.1.016-.131-.034-.176-.009a.146.146,0,0,0-.026.194C360.441,193.212,360.478,193.183,360.585,193.207Z" transform="translate(-216.59 -28.962)" fill="#fff"/>
    <path id="Path_12185" data-name="Path 12185" d="M321.005,192.948a.3.3,0,0,1,.176-.053c.127,0,.168.068.237.044.092-.032.145-.2.1-.255-.009-.011-.026-.022-.255-.009-.1.006-.115.009-.167.009a1.484,1.484,0,0,1-.2-.018c-.228-.028-.343-.042-.387-.009-.077.058-.042.153-.105.176s-.133-.1-.308-.132c-.044-.008-.137-.025-.185.026s-.018.167,0,.22a.321.321,0,0,0,.132.185.41.41,0,0,1,.079.044c.044.035.044.057.079.088a.187.187,0,0,0,.141.053c.073-.013.112-.1.123-.123.036-.08.012-.129.053-.158a.1.1,0,0,1,.105,0c.043.031.014.089.053.141a.164.164,0,0,0,.176.053C320.939,193.19,320.889,193.037,321.005,192.948Z" transform="translate(-178.363 -28.65)" fill="#fff"/>
    <path id="Path_12186" data-name="Path 12186" d="M228.754,191.889c-.066,0-.06.23-.211.458a.776.776,0,0,1-.405.317.428.428,0,0,1-.335,0c-.137-.076-.164-.248-.194-.441-.022-.14-.06-.388.053-.458.083-.052.178.035.282-.035a.184.184,0,0,0,.088-.159c-.014-.1-.153-.1-.176-.194s.105-.214.123-.229c.129-.111.225-.064.423-.141.13-.051.121-.083.387-.264a2.413,2.413,0,0,1,.405-.247c.24-.1.277-.016.7-.088.348-.059.473-.14.616-.053.113.069.124.175.211.176.139,0,.206-.265.335-.247a.993.993,0,0,1,.158.106.584.584,0,0,1-.088.229.8.8,0,0,1-.176.176s-.108.091-.264.229c-.241.213-.165.348-.37.546a.846.846,0,0,1-.546.247c-.281,0-.481-.193-.546-.123-.047.05.054.152,0,.264a.271.271,0,0,1-.317.123C228.805,192.035,228.807,191.888,228.754,191.889Z" transform="translate(-91.262 -26.428)" fill="#fff"/>
    <path id="Path_12187" data-name="Path 12187" d="M206.167,215.807c-.012,0-.006-.041-.016-.144-.008-.075-.014-.082-.019-.085-.041-.026-.184.059-.211.176-.021.09.038.15,0,.194-.022.025-.041.006-.141.035a1.291,1.291,0,0,0-.141.053h0a.277.277,0,0,0-.018.176.175.175,0,0,0,.194.07c.109-.032.08-.166.209-.235.089-.048.151-.011.22-.079a.266.266,0,0,0,.063-.118c.036-.109.029-.237,0-.244S206.2,215.816,206.167,215.807Z" transform="translate(-70.524 -50.293)" fill="#fff"/>
    <path id="Path_12188" data-name="Path 12188" d="M168.787,228.882c.04.257-.01.349.062.428a.494.494,0,0,0,.159.09c.1.045.123.036.152.069.071.083.012.238,0,.269a.317.317,0,0,1-.11.152.358.358,0,0,1-.228.055c-.148,0-.2-.07-.262-.035s-.027.1-.09.159a.242.242,0,0,1-.3.021c-.064-.069.007-.186-.055-.228a.13.13,0,0,0-.159.041c-.008.012-.009.02-.014.124,0,.088,0,.093,0,.1.025.061.1.046.131.1.057.084-.071.227-.028.269.026.025.085-.014.276-.048.08-.014.1-.013.124,0a.176.176,0,0,1,.028.235c-.056.056-.15-.008-.207.055a.292.292,0,0,0-.048.138c-.219.06-.314.025-.359-.021s-.042-.1-.1-.131a.228.228,0,0,0-.186,0c-.021.01-.059.031-.145.159s-.06.119-.1.173c-.027.034-.049.051-.276.193-.1.062-.124.077-.159.1-.139.078-.209.116-.248.1-.069-.034-.067-.191-.041-.3a.666.666,0,0,1,.186-.3c.3-.331.355-.345.49-.511a2.921,2.921,0,0,0,.29-.442c.141-.256.128-.315.242-.428s.193-.108.338-.263c.107-.114.086-.141.193-.256s.307-.282.4-.228C168.742,228.722,168.765,228.738,168.787,228.882Z" transform="translate(-33.685 -62.687)" fill="#fff"/>
    <path id="Path_12189" data-name="Path 12189" d="M202.788,251.942c.1.019.125-.027.186,0a.253.253,0,0,1,.11.283c0,.016-.036.131-.117.152-.056.014-.136-.032-.3-.124a.237.237,0,0,0-.1-.041c-.083-.01-.121.048-.173.028s-.062-.09-.069-.124a.233.233,0,0,1,.041-.2.25.25,0,0,1,.221-.055C202.687,251.875,202.691,251.924,202.788,251.942Z" transform="translate(-67.424 -84.531)" fill="#fff"/>
    <path id="Path_12190" data-name="Path 12190" d="M203.134,470.322a.215.215,0,0,1,.147.27.236.236,0,0,1-.171.123c-.033.008-.128.032-.171-.016s.007-.177.025-.212S203.045,470.318,203.134,470.322Z" transform="translate(-67.981 -290.697)" fill="#fff"/>
    <path id="Path_12191" data-name="Path 12191" d="M241.565,476.652c.064.1.038.153.1.2a.152.152,0,0,0,.171.008.188.188,0,0,0-.016-.253.47.47,0,0,0-.2-.106c-.061-.014-.159-.023-.171.008S241.5,476.557,241.565,476.652Z" transform="translate(-104.339 -296.513)" fill="#fff"/>
    <path id="Path_12192" data-name="Path 12192" d="M217.756,495.681c.062.084.017.181.063.2s.118-.034.139-.1c.025-.083-.047-.166-.1-.2a.259.259,0,0,0-.29,0C217.565,495.6,217.69,495.592,217.756,495.681Z" transform="translate(-81.807 -314.493)" fill="#fff"/>
    <path id="Path_12193" data-name="Path 12193" d="M272.476,498.718c-.025.337-1.119.41-1.135.606-.02.265,1.475.517,1.475.517a12.416,12.416,0,0,0,6.252-.782c.1-.044.248-.119.265-.24.021-.149-.164-.321-.34-.4-.341-.16-.546.063-.895-.1-.218-.1-.22-.227-.378-.24-.241-.019-.355.261-.605.442-.3.214-.567.132-1.651.038-.17-.015.2.019-1.551-.088-.784-.048-1.4-.088-1.462.1C272.433,498.622,272.481,498.645,272.476,498.718Z" transform="translate(-132.556 -316.886)" fill="#fff"/>
  </g>
</svg>
