<svg xmlns="http://www.w3.org/2000/svg" width="18.719" height="28.431" viewBox="0 0 18.719 28.431">
  <g id="Group_54467" data-name="Group 54467" transform="translate(-204.7 -202.79)">
    <path id="Path_12194" data-name="Path 12194" d="M205.652,238.969q-.055,11.332-.11,22.664l13.933.071a3.722,3.722,0,0,0,3.194-3.3l-.1-16.175a3.659,3.659,0,0,0-.961-2.163,3.723,3.723,0,0,0-2.576-1.133Z" transform="translate(0 -31.233)" fill="none" stroke="#fff" stroke-miterlimit="10" stroke-width="1.5"/>
    <path id="Path_12195" data-name="Path 12195" d="M220.76,206.727a2.184,2.184,0,0,0-.456-1.51,1.858,1.858,0,0,0-1.983-.567l-12,3.076" transform="translate(-0.708 -1)" fill="none" stroke="#fff" stroke-linecap="round" stroke-miterlimit="10" stroke-width="1.5"/>
    <path id="Path_12196" data-name="Path 12196" d="M243.532,337.06h10.2" transform="translate(-34.521 -120.396)" fill="none" stroke="#fff" stroke-miterlimit="10" stroke-width="1.5"/>
    <path id="Path_12197" data-name="Path 12197" d="M248.212,280.215a5.067,5.067,0,1,0,5.157,5.5A5.129,5.129,0,0,0,248.212,280.215Z" transform="translate(-34.246 -68.741)" fill="none" stroke="#fff" stroke-miterlimit="10" stroke-width="1.5"/>
    <path id="Path_12198" data-name="Path 12198" d="M269.709,281.444a6.674,6.674,0,0,0-2.877,4.909c-.085,2.311,1.292,5.033,2.8,5.059,1.475.025,2.91-2.524,2.96-4.73C272.665,283.59,270.006,281.653,269.709,281.444Z" transform="translate(-55.69 -69.859)" fill="none" stroke="#fff" stroke-miterlimit="10" stroke-width="1.5"/>
    <path id="Path_12199" data-name="Path 12199" d="M298.506,280.393q.013,5.078.026,10.155" transform="translate(-84.475 -68.904)" fill="none" stroke="#fff" stroke-miterlimit="10" stroke-width="1.5"/>
    <line id="Line_25" data-name="Line 25" x2="9.09" transform="translate(209.524 225.965)" fill="none" stroke="#fff" stroke-linecap="round" stroke-miterlimit="10" stroke-width="1.5"/>
  </g>
</svg>
