<svg xmlns="http://www.w3.org/2000/svg" width="32.526" height="35.823" viewBox="0 0 32.526 35.823"><g transform="translate(6.46 1.5)"><g transform="translate(-4.96)"><path d="M14.763,8.689V7.723A7.558,7.558,0,0,0,7.382,0,7.558,7.558,0,0,0,0,7.723v.965A13.74,13.74,0,0,0,5.167,19.5a3.563,3.563,0,0,0,4.429,0A13.74,13.74,0,0,0,14.763,8.689Z" transform="translate(7.382)" fill="none" stroke="#fff" stroke-linecap="round" stroke-linejoin="round" stroke-miterlimit="10" stroke-width="3"/><path d="M19.318,0l.57,2.386a3.837,3.837,0,0,0,1.93,2.52l2.825,1.477A7.662,7.662,0,0,1,28.5,11.419L29.526,15.7H0l1.022-4.277A7.662,7.662,0,0,1,4.883,6.383L7.708,4.906a3.837,3.837,0,0,0,1.93-2.52L10.209,0" transform="translate(0 17.128)" fill="none" stroke="#fff" stroke-linecap="round" stroke-linejoin="round" stroke-miterlimit="10" stroke-width="3"/></g></g></svg>