<svg xmlns="http://www.w3.org/2000/svg" width="41.629" height="35.824" viewBox="0 0 41.629 35.824"><g transform="translate(-90.107 -190.112)"><g transform="translate(99.25 200.972)"><g transform="translate(0 0)"><path d="M213.992,290.877V290.4a3.7,3.7,0,1,0-7.393,0v.479a6.78,6.78,0,0,0,2.588,5.359,1.8,1.8,0,0,0,2.218,0A6.78,6.78,0,0,0,213.992,290.877Z" transform="translate(-202.902 -286.572)" fill="none" stroke="#fff" stroke-linecap="round" stroke-linejoin="round" stroke-width="2"/><path d="M178.777,372.672l.285,1.183a1.9,1.9,0,0,0,.966,1.249l1.415.732a3.8,3.8,0,0,1,1.933,2.495l.512,2.119H169.1l.512-2.119a3.8,3.8,0,0,1,1.933-2.495l1.415-.732a1.9,1.9,0,0,0,.967-1.249l.285-1.183" transform="translate(-169.104 -364.186)" fill="none" stroke="#fff" stroke-linecap="round" stroke-linejoin="round" stroke-width="2"/></g></g><path d="M246.839,220.3a15.289,15.289,0,0,1-5.157,10.53q-.177.158-.361.31a15.188,15.188,0,0,1-2.86,1.881h0a14.593,14.593,0,0,1-4.709,1.456,14.943,14.943,0,0,0,2.221-1.273q.559-.386,1.079-.82.183-.152.361-.31a15.159,15.159,0,0,0-9.106-26.547c-.155-.007-.309-.012-.461-.014a14.017,14.017,0,0,0-2.063.117,14.518,14.518,0,0,1,3.853-1.182,14.217,14.217,0,0,1,2.943-.165A15.291,15.291,0,0,1,246.839,220.3Z" transform="translate(-120.944 -11.407)" fill="none" stroke="#fff" stroke-miterlimit="10" stroke-width="3"/><path d="M290.6,207.646a15.289,15.289,0,0,1-5.157,10.53q-.177.158-.361.31a15.187,15.187,0,0,1-2.86,1.881h0a14.593,14.593,0,0,1-4.709,1.456,14.941,14.941,0,0,0,2.221-1.273q.559-.386,1.079-.82.183-.152.361-.31a15.159,15.159,0,0,0-9.106-26.547c-.155-.007-.309-.012-.461-.014a14.015,14.015,0,0,0-2.063.117,14.519,14.519,0,0,1,3.853-1.182,14.218,14.218,0,0,1,2.943-.165A15.291,15.291,0,0,1,290.6,207.646Z" transform="translate(-160.392 0)" fill="none" stroke="#fff" stroke-miterlimit="10" stroke-width="3"/><path d="M121.624,232.913a15.289,15.289,0,0,1-5.157,10.53q-.177.158-.361.31-.52.433-1.079.82a14.94,14.94,0,0,1-2.221,1.273,14.558,14.558,0,0,1-5.75,1.36,15.122,15.122,0,0,1-8.509-27.832q.384-.256.784-.489A14.684,14.684,0,0,1,104.836,217a14.019,14.019,0,0,1,2.063-.117c.153,0,.307.007.461.014A15.291,15.291,0,0,1,121.624,232.913Z" transform="translate(0 -22.777)" fill="none" stroke="#fff" stroke-miterlimit="10" stroke-width="3"/></g></svg>