<svg xmlns="http://www.w3.org/2000/svg" width="33.216" height="33.216" viewBox="0 0 33.216 33.216"><g transform="translate(-0.529 -0.529)"><path d="M7.161,2.193V3.847H2.184A1.661,1.661,0,0,0,.529,5.514V32.075a1.661,1.661,0,0,0,1.655,1.67H32.078a1.661,1.661,0,0,0,1.668-1.67V5.514a1.661,1.661,0,0,0-1.668-1.667H27.1V2.193a1.663,1.663,0,1,0-3.326,0V3.847H10.483V2.193A1.661,1.661,0,1,0,7.161,2.193ZM3.851,7.168H7.161v1.67a1.661,1.661,0,0,0,3.322,0V7.168H23.775v1.67a1.663,1.663,0,0,0,3.326,0V7.168h3.322v4.991H3.851Zm0,8.3H30.423V30.421H3.851Zm3.309,1.667c-2.071,0-2.2,3.324,0,3.324h3.322a1.663,1.663,0,1,0,0-3.324Zm8.315,0a1.662,1.662,0,1,0,0,3.324H18.8a1.663,1.663,0,1,0,0-3.324Zm8.3,0a1.662,1.662,0,0,0,0,3.324H27.1a1.663,1.663,0,1,0,0-3.324ZM7.161,23.779a1.661,1.661,0,0,0,0,3.321h3.322a1.66,1.66,0,1,0,0-3.321Zm8.315,0a1.661,1.661,0,1,0,0,3.321H18.8a1.661,1.661,0,0,0,0-3.321Zm8.3,0a1.66,1.66,0,0,0,0,3.321H27.1a1.661,1.661,0,1,0,0-3.321Z" transform="translate(0 0)" fill="#fdfeff"/></g></svg>