<svg xmlns="http://www.w3.org/2000/svg" width="20.063" height="32.288" viewBox="0 0 20.063 32.288"><g transform="translate(-31.794 -797.058)"><g transform="translate(27.794 797.028)"><path d="M962.788,922.358a2,2,0,0,1-2.018-1.419l1.388-18.549-2.076-.039a1.259,1.259,0,0,1-.627-.2.775.775,0,0,1-.343-.487l-.034-5.777q-.017-2.889-.034-5.777l1.264-.005q.165,3.5.355,7,.068,1.259.14,2.519l.91,0q.223-4.752.445-9.5h1.47l.333,9.443.988.015q.264-4.73.528-9.461l1.216-.005c.009,6.166-.01,10.657-.02,11.235a.982.982,0,0,1-.3.738,1.4,1.4,0,0,1-.579.3l-2.245.036q.7,9.284,1.4,18.567A2.062,2.062,0,0,1,962.788,922.358Z" transform="translate(-955.044 -890.073)" fill="#fdfeff"/><path d="M1038,890.394c-2.911-.016-5.61,3.4-5.467,6.439.168,3.585,4.239,5.617,4.65,5.815q-.611,9.339-1.222,18.678a1.238,1.238,0,0,0,.388.838,2.726,2.726,0,0,0,3.124.054,1.378,1.378,0,0,0,.5-.927q-.641-9.32-1.28-18.641c.459-.22,4.388-2.179,4.655-5.673C1043.582,893.906,1040.93,890.411,1038,890.394Z" transform="translate(-1019.299 -890.365)" fill="#fdfeff"/></g></g></svg>