<svg xmlns="http://www.w3.org/2000/svg" width="19.163" height="19.163" viewBox="0 0 19.163 19.163">
  <path id="Path_12142" data-name="Path 12142" d="M17.246,0H1.916A1.922,1.922,0,0,0,0,1.916v15.33a1.923,1.923,0,0,0,1.916,1.916h15.33a1.923,1.923,0,0,0,1.916-1.916V1.916A1.922,1.922,0,0,0,17.246,0ZM5.171,16.864H2.236V14.253H5.171v2.611Zm0-3.487H2.236v-2.61H5.171v2.61ZM4.95,2.9a.813.813,0,1,1,.813-.814A.813.813,0,0,1,4.95,2.9Zm4.139,13.96H6.154V14.253H9.089Zm0-3.487H6.154v-2.61H9.089Zm0-3.484H6.154V7.283H9.089Zm-.321-7.8a.813.813,0,1,1,.813.813A.813.813,0,0,1,8.768,2.091Zm4.241,11.287H10.073v-2.61H13.01v2.61Zm0-3.484H10.073V7.283H13.01v2.61Zm.39-7.8a.813.813,0,1,1,.813.813A.813.813,0,0,1,13.4,2.091Zm3.528,11.287H13.991v-2.61h2.936Zm0-3.484H13.991V7.283h2.936Z" fill="#fff"/>
</svg>
